# xmcd
#
# Track frame offsets: 
#        150
#        13125
#        29973
#        46013
#        66435
#        93223
#        110064
#        128361
#        151033
#        171259
#        190441
#        212102
#        236585
#        260148
#
# Disc length: 3852 seconds
#
# Revision: 0
# Processed by: cddbd v1.5.2PL0 Copyright (c) Steve Scherf et al.
# Submitted via: ExactAudioCopy v1.3
#
DISCID=c60f0a0e
DTITLE=Billy Price - East End Avenue
DYEAR=2006
DGENRE=Blues
TTITLE0=Keep It To Yourself
TTITLE1=Soul Sailin'
TTITLE2=She left me with these Blues
TTITLE3=East End Avenue
TTITLE4=The Other Side Of You
TTITLE5=If You Cook Like You Walk
TTITLE6=The Big Show
TTITLE7=Only Two Lovers
TTITLE8=The Price I Paid for Loving You
TTITLE9=Push Me to My Limit
TTITLE10=Sweet Mistreatin' Love
TTITLE11=Funky Like Dyke, Part 2
TTITLE12=The Hard Hours
TTITLE13=Faithful And True
EXTD=
EXTT0=
EXTT1=
EXTT2=
EXTT3=
EXTT4=
EXTT5=
EXTT6=
EXTT7=
EXTT8=
EXTT9=
EXTT10=
EXTT11=
EXTT12=
EXTT13=
PLAYORDER=
